# xmcd
#
# Track frame offsets:
# 150
# 13556
# 25052
# 61225
# 72483
# 83412
# 102750
# 114342
# 126995
# 137752
# 183794
# 198006
# 217936
# 232212
# 240565
#
# Disc length: 3348 seconds
#
#
# Revision: 0
# Processed by: cddbd v1.5.1PL0 Copyright (c) Steve Scherf et al.
# Submitted via: FreeRIP 2.941 
#
DISCID=bf0d120f
DTITLE=Erni Singerl - 80 Jahre
DYEAR=2001
DGENRE=Folklore
TTITLE0=Heut bin I grantig
TTITLE1=Grüsse aus dem Platzl
TTITLE2=Der Bettelbua
TTITLE3=Alpenexpress
TTITLE4=Der Fernsehtick
TTITLE5=Burgmeier Vroni
TTITLE6=Münchner Glockenwalzer
TTITLE7=Das Kuchlmensch
TTITLE8=Sternpolka
TTITLE9=Besuch im Tierpark
TTITLE10=Weiss-Blau
TTITLE11=Die Unverstandene Frau
TTITLE12=Bruderschaftsmarsch
TTITLE13=Meine Fahrstunden
TTITLE14=Mei Spezi is a Preis
EXTD=zum 80. Geburtstag, P 2001
EXTT0=
EXTT1=
EXTT2=
EXTT3=
EXTT4=
EXTT5=
EXTT6=
EXTT7=
EXTT8=
EXTT9=
EXTT10=
EXTT11=
EXTT12=
EXTT13=
EXTT14=
PLAYORDER=
